<?xml version="1.0" encoding="UTF-8" standalone="no"?>
<!-- Generator: Adobe Illustrator 21.1.0, SVG Export Plug-In . SVG Version: 6.00 Build 0)  -->

<svg
   xmlns:dc="http://purl.org/dc/elements/1.1/"
   xmlns:cc="http://creativecommons.org/ns#"
   xmlns:rdf="http://www.w3.org/1999/02/22-rdf-syntax-ns#"
   xmlns:svg="http://www.w3.org/2000/svg"
   xmlns="http://www.w3.org/2000/svg"
   xmlns:sodipodi="http://sodipodi.sourceforge.net/DTD/sodipodi-0.dtd"
   xmlns:inkscape="http://www.inkscape.org/namespaces/inkscape"
   version="1.1"
   id="Layer_1"
   x="0px"
   y="0px"
   viewBox="0 0 930 287.3"
   style="enable-background:new 0 0 930 287.3;"
   xml:space="preserve"
   sodipodi:docname="reactive-traits-it-minimal.svg"
   inkscape:version="0.92.3 (2405546, 2018-03-11)"><metadata
   id="metadata83"><rdf:RDF><cc:Work
       rdf:about=""><dc:format>image/svg+xml</dc:format><dc:type
         rdf:resource="http://purl.org/dc/dcmitype/StillImage" /><dc:title></dc:title></cc:Work></rdf:RDF></metadata><defs
   id="defs81" /><sodipodi:namedview
   pagecolor="#ffffff"
   bordercolor="#666666"
   borderopacity="1"
   objecttolerance="10"
   gridtolerance="10"
   guidetolerance="10"
   inkscape:pageopacity="0"
   inkscape:pageshadow="2"
   inkscape:window-width="1920"
   inkscape:window-height="1027"
   id="namedview79"
   showgrid="false"
   inkscape:zoom="1.6903226"
   inkscape:cx="388.55525"
   inkscape:cy="147.58694"
   inkscape:window-x="269"
   inkscape:window-y="-8"
   inkscape:window-maximized="1"
   inkscape:current-layer="Layer_1" />
<style
   type="text/css"
   id="style2">
	.st0{fill:none;stroke:#AFB4C6;stroke-width:2;stroke-miterlimit:10;stroke-dasharray:5;}
	.st1{fill:#445DE9;}
	.st2{font-family:'HelveticaNeue-Bold';}
	.st3{font-size:18px;}
	.st4{opacity:0.4;fill:#445DE9;enable-background:new    ;}
	.st5{opacity:0.6;fill:#445DE9;enable-background:new    ;}
	.st6{fill:#FFFFFF;}
	.st7{font-family:'HelveticaNeue';}
	.st8{font-family:'HelveticaNeue-Medium';}
	.st9{fill:none;stroke:#445DE9;stroke-width:1.9399;stroke-miterlimit:10;}
</style>

<g
   id="Layer_1_1_"
   inkscape:export-xdpi="96"
   inkscape:export-ydpi="96">
	<g
   id="g72">
		<path
   class="st4"
   d="M431.8,73c-8.8,0-16-7.2-16-16V22c0-8.8,7.2-16,16-16h212c8.8,0,16,7.2,16,16v35c0,8.8-7.2,16-16,16H431.8z"
   id="path34" />
		<path
   class="st5"
   d="M431.8,69c-6.6,0-12-5.4-12-12V22c0-6.6,5.4-12,12-12h212c6.6,0,12,5.4,12,12v35c0,6.6-5.4,12-12,12H431.8z"
   id="path36" />
		<path
   class="st1"
   d="M643.8,14h-212c-4.4,0-8,3.6-8,8v35c0,4.4,3.6,8,8,8h212c4.4,0,8-3.6,8-8V22C651.8,17.5,648.2,14,643.8,14z"
   id="path38" />
		<text
   transform="matrix(1 0 0 1 489.7999 42.9651)"
   class="st6 st7 st3"
   id="text40">Responsivi</text>

		<g
   id="g50">
			<path
   class="st4"
   d="M696.8,177c-8.8,0-16-7.2-16-16v-35c0-8.8,7.2-16,16-16h212c8.8,0,16,7.2,16,16v35c0,8.8-7.2,16-16,16H696.8     z"
   id="path42" />
			<path
   class="st5"
   d="M696.8,173c-6.6,0-12-5.4-12-12v-35c0-6.6,5.4-12,12-12h212c6.6,0,12,5.4,12,12v35c0,6.6-5.4,12-12,12H696.8     z"
   id="path44" />
			<path
   class="st1"
   d="M908.8,118h-212c-4.4,0-8,3.6-8,8v35c0,4.4,3.6,8,8,8h212c4.4,0,8-3.6,8-8v-35     C916.8,121.5,913.2,118,908.8,118z"
   id="path46" />
			<text
   transform="matrix(1 0 0 1 766.8005 149.2253)"
   class="st6 st8 st3"
   id="text48">Resilienti</text>

		</g>
		<g
   id="g58">
			<path
   class="st4"
   d="M431.8,282c-8.8,0-16-7.2-16-16v-35c0-8.8,7.2-16,16-16h212c8.8,0,16,7.2,16,16v35c0,8.8-7.2,16-16,16H431.8     z"
   id="path52" />
			<path
   class="st5"
   d="M431.8,278c-6.6,0-12-5.4-12-12v-35c0-6.6,5.4-12,12-12h212c6.6,0,12,5.4,12,12v35c0,6.6-5.4,12-12,12H431.8     z"
   id="path54" />
			<path
   class="st1"
   d="M643.8,223h-212c-4.4,0-8,3.6-8,8v35c0,4.4,3.6,8,8,8h212c4.4,0,8-3.6,8-8v-35     C651.8,226.5,648.2,223,643.8,223z"
   id="path56" />
		</g>
		<text
   transform="matrix(1 0 0 1 453.8 253.9655)"
   class="st6 st8 st3"
   id="text60">Orientati ai Messaggi</text>

		<g
   id="g70">
			<path
   class="st4"
   d="M165.8,177c-8.8,0-16-7.2-16-16v-35c0-8.8,7.2-16,16-16h212c8.8,0,16,7.2,16,16v35c0,8.8-7.2,16-16,16H165.8     z"
   id="path62" />
			<path
   class="st5"
   d="M165.8,173c-6.6,0-12-5.4-12-12v-35c0-6.6,5.4-12,12-12h212c6.6,0,12,5.4,12,12v35c0,6.6-5.4,12-12,12H165.8     z"
   id="path64" />
			<path
   class="st1"
   d="M377.8,118h-212c-4.4,0-8,3.6-8,8v35c0,4.4,3.6,8,8,8h212c4.4,0,8-3.6,8-8v-35     C385.8,121.5,382.2,118,377.8,118z"
   id="path66" />
			<text
   transform="matrix(1 0 0 1 240.7999 148.965)"
   class="st6 st8 st3"
   id="text68">Elastici</text>

		</g>
	</g>
</g>
<g
   id="Layer_2">
	<path
   class="st9"
   d="M407.2,46.7c-31.1,7.7-58.2,18.1-79.5,30.4c-16.3,9.4-29.2,20-37.9,31.4 M395.2,46.7c3.9,0,7.3,0.1,11.2,0.1   c-3.4,1.9-6.3,3.6-9.6,5.6 M291.6,180.7c21.3,25.8,63.9,47.2,118.9,60.3 M297.5,191.3c-2-3.5-3.6-6.5-5.3-10   c3.3,2.1,6.1,3.8,9.5,5.7 M666.4,240.7c53.5-13,95.2-33.8,116.6-58.8 M777.2,192.2c2-3.4,3.7-6.4,5.5-10c-3.3,2.1-6.2,3.8-9.6,5.6    M782.1,104.1c-13.8-15.7-35.7-29.8-63.6-41.2c-15-6.2-31.8-11.6-50-16.1 M680.8,46.8c-3.9,0-7.3,0-11.3,0.1c3.4,2,6.3,3.6,9.6,5.7    M536.3,78v128 M533.3,89.6c1.1-3.8,2-7,3-10.8c1.1,3.8,2,7,3,10.8 M414.8,145h246 M425.7,148c-3.6-1-6.6-1.9-10.2-3   c3.6-1,6.6-1.9,10.2-3 M650.6,148c3.6-1,6.6-1.9,10.2-3c-3.6-1-6.6-1.9-10.2-3"
   id="path75" />
</g>
</svg>